# Blender v2.93.1 OBJ File: 'Asteroids.blend'
# www.blender.org
mtllib Asteroid_2.mtl
o 2_Cube.006
v 0.500000 0.635752 -0.476537
v 0.613446 -0.635752 -0.599382
v 0.459348 0.339316 0.817485
v 0.332335 -0.351068 0.992368
v -0.500000 0.635752 -0.476537
v -0.500000 -0.635752 -0.476537
v -0.332335 0.258367 0.817485
v -0.332335 -0.351068 0.992368
v -0.609568 -0.609568 0.242617
v 0.000000 -0.775068 -0.615853
v 0.723013 0.000000 -0.738698
v -0.405162 -0.018733 1.065194
v 0.405162 -0.018733 1.065194
v -0.609568 -0.000000 -0.615853
v -0.000000 0.331194 0.890311
v 0.609568 0.609568 0.242617
v -0.000000 -0.423895 1.065194
v -0.609568 0.609568 0.242617
v 0.000000 0.775068 -0.615853
v 0.609568 -0.609568 0.242617
v -0.000000 0.839506 0.242617
v 0.000000 -0.018733 1.218028
v -0.839506 0.000000 0.242617
v 0.000000 -0.839506 0.242617
v 0.839506 0.000000 0.242617
v 0.000000 0.000000 -0.908220
vt 0.625000 0.500000
vt 0.750000 0.500000
vt 0.750000 0.625000
vt 0.625000 0.625000
vt 0.875000 0.500000
vt 0.875000 0.625000
vt 0.875000 0.750000
vt 0.750000 0.750000
vt 0.625000 0.750000
vt 0.375000 0.750000
vt 0.500000 0.750000
vt 0.500000 0.875000
vt 0.375000 0.875000
vt 0.625000 0.875000
vt 0.625000 1.000000
vt 0.500000 1.000000
vt 0.375000 1.000000
vt 0.375000 0.000000
vt 0.500000 0.000000
vt 0.500000 0.125000
vt 0.375000 0.125000
vt 0.625000 0.000000
vt 0.625000 0.125000
vt 0.625000 0.250000
vt 0.500000 0.250000
vt 0.375000 0.250000
vt 0.125000 0.500000
vt 0.250000 0.500000
vt 0.250000 0.625000
vt 0.125000 0.625000
vt 0.375000 0.500000
vt 0.375000 0.625000
vt 0.250000 0.750000
vt 0.125000 0.750000
vt 0.500000 0.500000
vt 0.500000 0.625000
vt 0.500000 0.375000
vt 0.375000 0.375000
vt 0.625000 0.375000
vn 0.3205 0.9462 -0.0452
vn -0.3205 0.9462 -0.0452
vn -0.2875 0.7516 0.5936
vn 0.2059 0.8138 0.5435
vn 0.3061 -0.3061 0.9015
vn 0.1948 0.6096 0.7684
vn -0.2775 0.6669 0.6916
vn -0.3061 -0.3061 0.9015
vn -0.8489 -0.3062 0.4309
vn -0.7688 0.4016 0.4978
vn -0.9399 0.2784 -0.1977
vn -0.9399 -0.2784 -0.1977
vn -0.3205 -0.9462 -0.0452
vn 0.2892 -0.9570 -0.0209
vn 0.3070 -0.8539 0.4202
vn -0.3070 -0.8539 0.4202
vn 0.9617 -0.2684 -0.0555
vn 0.9251 0.3612 -0.1174
vn 0.8689 0.2649 0.4182
vn 0.8489 -0.3062 0.4309
vn -0.3784 -0.2976 -0.8765
vn -0.3784 0.2976 -0.8765
vn 0.2670 0.3888 -0.8818
vn 0.1621 -0.3002 -0.9400
usemtl Brown
s off
f 1/1/1 19/2/1 21/3/1 16/4/1
f 19/2/2 5/5/2 18/6/2 21/3/2
f 21/3/3 18/6/3 7/7/3 15/8/3
f 16/4/4 21/3/4 15/8/4 3/9/4
f 4/10/5 13/11/5 22/12/5 17/13/5
f 13/11/6 3/9/6 15/14/6 22/12/6
f 22/12/7 15/14/7 7/15/7 12/16/7
f 17/13/8 22/12/8 12/16/8 8/17/8
f 8/18/9 12/19/9 23/20/9 9/21/9
f 12/19/10 7/22/10 18/23/10 23/20/10
f 23/20/11 18/23/11 5/24/11 14/25/11
f 9/21/12 23/20/12 14/25/12 6/26/12
f 6/27/13 10/28/13 24/29/13 9/30/13
f 10/28/14 2/31/14 20/32/14 24/29/14
f 24/29/15 20/32/15 4/10/15 17/33/15
f 9/30/16 24/29/16 17/33/16 8/34/16
f 2/31/17 11/35/17 25/36/17 20/32/17
f 11/35/18 1/1/18 16/4/18 25/36/18
f 25/36/19 16/4/19 3/9/19 13/11/19
f 20/32/20 25/36/20 13/11/20 4/10/20
f 6/26/21 14/25/21 26/37/21 10/38/21
f 14/25/22 5/24/22 19/39/22 26/37/22
f 26/37/23 19/39/23 1/1/23 11/35/23
f 10/38/24 26/37/24 11/35/24 2/31/24
